<?xml version="1.0" standalone="no"?>
<!DOCTYPE svg PUBLIC "-//W3C//DTD SVG 20010904//EN"
 "http://www.w3.org/TR/2001/REC-SVG-20010904/DTD/svg10.dtd">
<svg version="1.0" xmlns="http://www.w3.org/2000/svg"
 width="552.000000pt" height="552.000000pt" viewBox="0 0 552.000000 552.000000"
 preserveAspectRatio="xMidYMid meet">
<metadata>
Created by potrace 1.11, written by Peter Selinger 2001-2013
</metadata>
<g transform="translate(0.000000,552.000000) scale(0.100000,-0.100000)"
fill="#000000" stroke="none">
<path d="M2687 5490 c-42 -33 -47 -68 -38 -265 4 -99 7 -183 5 -186 -2 -4 -36
-10 -75 -13 l-71 -7 6 -79 7 -79 -60 -7 c-33 -3 -65 -12 -70 -18 -8 -10 3 -95
24 -183 4 -19 0 -23 -40 -28 -24 -4 -48 -12 -53 -19 -6 -7 1 -57 19 -131 15
-66 26 -121 25 -122 -3 -4 -160 -52 -161 -50 -1 1 -35 92 -75 202 -83 229 -87
238 -103 232 -7 -3 -36 -14 -64 -26 l-53 -21 -40 80 -40 80 -65 -32 c-35 -18
-66 -30 -68 -27 -2 2 -41 74 -86 159 -94 175 -111 197 -157 206 -70 13 -145
-59 -129 -124 4 -15 51 -98 106 -185 54 -87 99 -161 99 -165 -1 -4 -25 -24
-55 -45 -30 -21 -55 -42 -55 -48 0 -5 18 -34 40 -64 22 -30 40 -56 40 -58 0
-3 -22 -22 -50 -43 -27 -21 -50 -43 -50 -49 0 -5 29 -44 65 -85 l64 -75 -41
-36 -42 -37 91 -98 90 -99 -57 -63 -57 -64 -174 146 c-153 128 -209 165 -209
139 0 -5 -17 -27 -38 -51 l-37 -43 -62 45 c-35 25 -69 46 -76 46 -8 0 -31 -25
-51 -55 -20 -31 -40 -54 -44 -51 -364 222 -367 223 -428 162 -25 -25 -34 -43
-34 -67 0 -65 26 -88 206 -183 93 -49 170 -90 172 -91 2 -2 -11 -31 -28 -64
-17 -34 -28 -66 -25 -72 4 -5 35 -23 71 -39 l64 -29 -21 -53 c-12 -29 -22 -59
-23 -67 -1 -9 34 -26 94 -49 52 -19 96 -35 97 -36 1 -1 -6 -23 -15 -49 -21
-58 -26 -54 122 -98 61 -18 112 -33 114 -34 1 -1 -6 -38 -16 -81 -23 -95 1
-91 -275 -44 -132 23 -200 31 -207 24 -6 -6 -14 -37 -18 -69 l-7 -59 -55 3
c-30 2 -71 4 -90 5 l-35 1 -5 -70 -5 -70 -191 4 c-201 4 -221 0 -256 -43 -22
-27 -23 -94 -2 -125 31 -44 64 -49 264 -41 102 4 188 5 193 3 4 -2 7 -25 7
-51 0 -26 3 -58 7 -71 6 -23 8 -23 83 -17 l78 7 7 -65 c3 -36 10 -68 14 -71 5
-2 52 4 105 14 53 10 98 15 100 12 2 -3 7 -23 11 -43 4 -21 12 -41 19 -46 7
-6 56 1 131 19 65 15 120 27 121 26 10 -9 50 -158 45 -162 -5 -2 -99 -38 -212
-80 -112 -41 -207 -79 -212 -84 -4 -4 3 -36 17 -70 l25 -62 -75 -36 c-41 -19
-77 -39 -79 -44 -3 -4 8 -35 25 -68 l30 -61 -22 -13 c-13 -8 -84 -47 -158 -86
-150 -80 -190 -114 -190 -164 0 -70 68 -126 132 -109 13 3 95 50 182 105 l160
100 20 -26 c12 -13 33 -40 47 -58 l27 -34 60 43 c34 23 63 42 64 42 2 0 21
-22 42 -50 21 -27 43 -50 50 -50 6 1 44 29 85 65 l75 63 36 -40 36 -41 100 91
99 91 58 -57 c31 -31 57 -59 57 -63 0 -4 -65 -85 -145 -181 -79 -95 -145 -175
-145 -178 0 -3 25 -25 55 -48 l56 -44 -44 -61 c-24 -34 -47 -67 -51 -74 -4 -7
16 -27 54 -53 l60 -40 -82 -133 c-45 -72 -89 -145 -100 -162 -47 -78 1 -175
87 -175 58 0 78 23 169 192 47 90 90 169 95 176 6 11 21 7 69 -17 34 -17 64
-31 67 -31 3 0 20 30 37 68 17 37 32 68 33 69 1 2 30 -9 65 -23 73 -30 66 -35
110 87 l32 87 49 -16 c27 -9 51 -13 54 -11 2 3 20 56 39 118 19 63 37 116 40
118 4 4 151 -25 163 -32 2 -1 -13 -91 -32 -201 -49 -287 -52 -257 25 -269 l65
-10 0 -90 0 -90 69 -5 70 -5 -3 -202 -3 -203 30 -30 c25 -25 39 -30 77 -30 39
0 52 5 77 30 l30 31 -3 207 -4 207 50 3 c100 5 97 2 89 91 l-6 78 63 7 c35 4
67 12 70 18 3 5 1 37 -6 71 -7 34 -16 78 -19 98 l-6 37 45 7 c26 3 49 13 52
20 2 8 -5 61 -18 117 -12 57 -22 109 -23 117 -1 8 28 22 78 37 44 13 80 23 81
21 1 -1 35 -92 75 -202 40 -110 78 -206 85 -213 10 -11 23 -9 74 12 l61 25 34
-73 c18 -40 38 -76 44 -80 6 -4 38 7 71 23 l60 31 64 -118 c35 -64 76 -140 91
-168 42 -79 104 -104 166 -67 16 9 33 27 39 40 25 55 14 84 -93 255 l-104 166
59 41 c33 23 59 45 59 50 0 4 -18 32 -40 61 -22 29 -40 57 -40 61 0 4 23 24
50 45 28 21 50 41 50 46 0 4 -29 42 -65 85 l-66 78 36 30 c19 17 35 36 35 44
0 8 -36 52 -81 98 -44 46 -79 88 -77 93 7 19 110 120 118 115 4 -3 84 -68 176
-146 l169 -140 48 55 49 55 46 -33 c26 -18 59 -41 74 -50 l26 -17 41 60 41 60
162 -100 c190 -116 216 -123 274 -65 43 43 46 90 9 135 -15 17 -90 64 -178
110 -200 106 -183 91 -158 140 48 93 49 89 -27 123 -37 16 -68 31 -70 33 -2 1
8 30 22 64 l25 61 -22 14 c-12 8 -51 23 -87 35 -93 31 -93 31 -75 74 8 20 15
43 15 50 0 9 -43 27 -120 51 -66 20 -120 40 -120 44 1 16 36 151 40 155 3 3
102 -12 220 -33 136 -24 219 -34 227 -28 6 5 14 36 18 70 l7 61 89 -7 c101 -8
96 -12 101 88 l3 50 197 -3 c214 -3 232 1 256 55 31 67 -11 153 -75 155 -84 1
-238 -2 -310 -8 l-83 -6 0 39 c0 22 -3 56 -7 77 l-6 38 -78 -7 -78 -6 -7 62
c-4 39 -12 64 -21 67 -13 5 -124 -9 -180 -23 -19 -5 -22 -1 -29 41 -3 26 -13
49 -21 52 -8 3 -59 -4 -114 -17 -55 -12 -107 -23 -115 -24 -11 -1 -23 22 -40
77 -14 44 -24 80 -22 82 2 1 93 35 203 76 209 76 229 85 222 103 -3 6 -14 35
-26 64 l-21 53 67 31 c99 44 97 41 62 111 -37 73 -51 58 148 163 168 90 188
108 188 171 0 38 -5 49 -33 74 -23 20 -43 29 -68 29 -43 0 -44 -1 -220 -111
-77 -49 -145 -89 -150 -89 -5 0 -26 25 -47 55 -21 30 -42 55 -46 55 -4 0 -34
-19 -66 -42 l-58 -41 -38 44 c-21 24 -39 47 -39 52 0 18 -26 3 -98 -58 l-77
-65 -31 35 c-17 19 -38 35 -46 35 -8 0 -27 -14 -44 -31 -16 -17 -55 -53 -86
-81 l-58 -50 -60 52 c-33 29 -60 56 -60 60 0 4 63 84 140 176 77 92 140 173
140 180 0 9 -52 57 -99 90 -2 2 17 32 43 68 25 35 46 71 46 78 0 7 -21 27 -47
43 -25 17 -51 33 -56 36 -5 4 36 81 92 171 80 130 101 172 101 201 0 79 -97
132 -163 90 -20 -12 -56 -71 -119 -188 -49 -93 -91 -171 -92 -172 -2 -2 -30 9
-64 23 -33 15 -67 24 -74 21 -7 -3 -24 -32 -38 -66 -14 -33 -28 -61 -32 -61
-3 0 -27 9 -53 20 -75 32 -77 31 -114 -75 -18 -52 -35 -95 -36 -95 -1 0 -22 7
-45 15 -23 8 -46 15 -51 15 -4 0 -22 -46 -40 -102 -17 -57 -35 -112 -39 -124
l-8 -21 -79 20 c-43 10 -79 20 -81 22 -2 1 14 100 34 218 20 118 34 222 31
230 -3 9 -27 17 -64 22 -32 4 -61 9 -64 10 -3 2 -2 41 3 86 6 62 5 85 -5 91
-6 4 -40 8 -74 8 l-62 0 6 200 6 199 -36 36 c-28 28 -43 35 -75 35 -24 0 -49
-8 -65 -20z m107 -31 l26 -20 -2 -162 -2 -162 -3 161 c-3 132 -6 164 -19 175
-14 12 -15 -59 -12 -744 l3 -757 30 0 c17 0 73 -7 125 -16 52 -9 104 -17 115
-18 11 0 26 -7 33 -13 13 -13 32 -17 32 -8 0 9 191 639 195 643 2 2 20 -1 39
-8 35 -11 35 -12 22 -38 -7 -15 -37 -93 -66 -175 -29 -81 -55 -146 -57 -144
-2 2 19 69 47 148 30 85 47 145 40 147 -16 6 -12 20 8 24 16 3 16 4 -1 11 -11
4 -19 2 -22 -6 -86 -272 -197 -607 -203 -610 -4 -3 -47 4 -97 16 -131 30 -383
30 -513 -1 -437 -101 -774 -429 -891 -868 -32 -118 -39 -122 -17 -9 14 75 53
194 67 209 5 6 9 17 9 27 0 9 8 27 18 40 11 13 22 36 25 51 6 22 2 29 -25 46
-31 20 -54 20 -43 1 3 -5 -2 -6 -11 -2 -12 4 -15 3 -10 -6 5 -7 -15 -1 -43 13
-28 15 -51 29 -51 32 0 2 9 0 20 -6 11 -6 20 -8 20 -6 0 11 -61 36 -72 30 -6
-4 -8 -3 -5 3 4 6 -5 15 -19 22 -17 7 -23 8 -19 0 4 -5 -20 4 -54 21 -34 16
-61 33 -61 35 0 3 18 -4 40 -15 22 -11 40 -18 40 -15 0 8 -84 48 -107 51 -12
1 -194 93 -405 204 -516 273 -508 268 -518 296 -18 46 18 97 68 97 31 0 259
-138 254 -154 -1 -6 2 -8 8 -4 5 3 162 -88 348 -203 682 -424 665 -414 674
-400 13 21 10 25 -27 48 -19 12 -35 24 -35 26 0 6 14 -2 52 -28 18 -13 29 -15
33 -7 4 6 3 14 -1 18 -11 10 -146 102 -404 276 -202 136 -249 163 -118 68 51
-37 64 -52 58 -64 -7 -12 29 -39 181 -134 104 -65 189 -120 189 -122 0 -3 -15
4 -32 15 -581 355 -772 472 -781 475 -11 3 42 97 55 97 6 0 598 -417 814 -573
45 -32 53 -35 64 -22 10 12 8 19 -11 36 l-24 20 27 -17 c51 -30 29 2 -37 55
-36 29 -68 58 -72 64 -4 7 28 -17 70 -52 68 -56 80 -63 92 -50 13 13 2 26 -90
103 -58 48 -105 90 -105 93 0 3 99 -74 174 -136 18 -15 18 -15 6 5 -11 18 -10
25 3 45 15 21 15 24 -1 43 -9 11 5 1 32 -22 27 -23 52 -42 56 -42 4 0 14 8 23
18 14 16 5 28 -130 172 -79 85 -183 197 -231 248 l-85 93 27 27 c24 24 28 25
36 11 8 -13 390 -471 421 -503 5 -5 14 -4 23 4 14 11 5 24 -62 104 -43 50
-174 203 -291 340 -117 136 -210 250 -208 252 2 3 21 17 42 33 l38 28 250
-346 c137 -190 255 -352 263 -360 11 -12 16 -12 29 -1 14 12 14 15 -3 34 -11
12 -142 190 -292 396 -150 206 -281 384 -291 396 -11 11 -19 23 -19 27 0 7 90
70 94 65 2 -1 115 -183 251 -403 137 -220 255 -410 263 -422 8 -13 12 -23 9
-23 -3 0 -51 72 -107 160 -56 88 -104 160 -106 160 -3 0 -2 -4 1 -10 6 -9 -8
-15 -29 -11 -5 1 2 -13 16 -31 13 -18 68 -95 122 -171 54 -75 102 -139 107
-142 7 -5 43 8 58 21 2 2 -40 73 -93 159 -54 85 -95 159 -91 164 3 5 0 13 -6
17 -8 5 -9 3 -4 -6 6 -9 4 -11 -4 -6 -7 5 -10 14 -7 22 3 8 0 13 -7 11 -7 -1
-11 6 -11 15 1 10 -3 16 -10 15 -6 -1 -10 6 -10 15 1 10 -1 16 -5 14 -11 -7
-524 816 -529 847 -9 60 81 104 120 60 30 -34 119 -213 112 -224 -4 -8 -3 -9
4 -5 14 8 56 -70 46 -86 -5 -7 -3 -8 6 -3 10 6 12 4 7 -9 -5 -11 -3 -15 5 -10
8 5 9 2 5 -10 -4 -10 -3 -15 3 -11 12 8 43 -52 34 -67 -5 -7 -3 -8 6 -3 10 6
12 4 7 -9 -5 -11 -3 -15 5 -10 8 5 9 2 5 -10 -5 -11 -3 -15 5 -10 8 5 9 2 5
-10 -4 -10 -3 -15 3 -11 12 7 33 -32 24 -47 -5 -7 -3 -8 6 -3 10 6 12 4 7 -9
-5 -11 -3 -15 5 -10 8 5 9 2 5 -10 -5 -11 -3 -15 5 -10 8 5 9 2 5 -10 -5 -11
-3 -15 5 -10 8 5 9 1 4 -12 -4 -10 -4 -15 0 -11 10 10 36 -31 28 -45 -5 -7 -3
-8 6 -3 10 6 12 4 7 -9 -5 -11 -3 -15 5 -10 8 5 9 1 4 -12 -4 -10 -4 -15 0
-11 10 10 55 -72 47 -86 -3 -7 -2 -9 2 -4 11 9 87 -131 79 -145 -5 -7 -2 -8 6
-3 10 6 12 4 6 -11 -4 -10 -4 -15 0 -11 4 4 18 -11 31 -34 56 -99 134 -249
130 -249 -3 0 -31 47 -62 105 -31 58 -61 105 -66 105 -6 0 -7 5 -4 10 3 6 1
10 -5 10 -6 0 -8 4 -5 10 3 6 -1 7 -9 4 -29 -11 -12 -58 62 -179 41 -66 76
-121 77 -123 1 -1 9 0 18 4 13 5 14 10 6 27 -10 21 -9 21 5 3 14 -17 17 -17
72 9 41 20 53 30 45 38 -6 6 -11 16 -11 22 0 5 5 2 11 -7 13 -23 35 -22 79 3
21 11 26 17 13 14 -19 -5 -22 -3 -16 11 3 10 2 15 -3 12 -5 -4 -9 7 -9 23 0
22 2 26 10 16 7 -9 22 -13 43 -9 28 4 33 8 28 26 -2 11 -7 39 -10 61 -3 22 4
2 16 -43 l21 -84 31 6 c17 4 33 11 35 17 2 8 6 7 11 -1 13 -22 43 -3 37 23
-14 55 -158 849 -155 852 2 1 27 5 56 9 l52 7 0 -35 c0 -19 11 -144 25 -278
26 -250 31 -354 11 -213 -8 50 -16 79 -23 78 -7 -2 -15 17 -19 43 -3 25 -8 43
-11 40 -2 -2 14 -119 36 -260 23 -141 41 -257 41 -259 0 -1 12 -2 28 -1 65 3
62 -1 64 72 l2 67 3 -67 c4 -61 6 -68 24 -68 20 0 21 3 14 158 -3 86 -12 344
-20 572 -8 228 -18 487 -21 576 -7 171 -3 197 39 214 33 13 42 12 71 -11z
m1328 -356 c32 -29 23 -75 -34 -165 -56 -91 -73 -114 -62 -84 5 14 3 17 -7 14
-8 -2 -16 -15 -17 -27 -2 -14 0 -21 7 -17 5 4 -2 -14 -16 -40 -19 -34 -28 -42
-35 -32 -7 9 -8 7 -4 -7 6 -22 -46 -110 -58 -98 -4 4 -5 1 -2 -7 3 -8 -4 -26
-15 -40 -11 -14 -17 -19 -13 -11 4 9 2 12 -7 9 -8 -3 -16 -13 -17 -23 -3 -11
0 -15 8 -10 9 6 9 3 1 -12 -7 -14 -18 -19 -34 -16 -21 4 -23 1 -21 -34 1 -31
-11 -58 -68 -150 -39 -62 -72 -113 -74 -113 -3 0 0 9 6 20 9 16 8 20 -5 20
-11 0 -15 -9 -13 -33 1 -26 -20 -67 -107 -207 -59 -96 -120 -194 -134 -217
-19 -31 -29 -39 -38 -31 -16 13 3 52 22 44 7 -2 16 3 20 12 3 9 1 18 -4 20 -7
2 -5 15 5 34 8 16 14 32 11 34 -2 2 -18 -23 -36 -55 -17 -33 -37 -63 -42 -67
-6 -3 7 27 29 67 22 41 176 331 342 644 166 314 309 576 318 583 22 17 72 15
94 -5z m-1315 -246 c-1 -45 -3 -5 -3 88 0 94 2 130 3 82 2 -48 2 -125 0 -170z
m-143 -89 c3 -128 8 -316 10 -418 3 -165 3 -171 -4 -60 -4 69 -8 144 -9 168
-1 29 -5 42 -15 42 -8 0 -17 12 -19 28 -10 67 -6 -52 7 -208 18 -205 27 -358
21 -345 -2 6 -27 217 -54 470 -28 253 -53 479 -56 502 -7 45 -6 46 86 51 l26
2 7 -232z m-637 -422 c106 -231 191 -421 190 -423 -2 -1 -36 67 -77 152 -40
85 -76 155 -81 155 -21 0 -39 -13 -31 -24 15 -19 175 -332 165 -321 -6 6 -112
199 -237 430 -126 231 -232 424 -237 430 -6 6 10 19 43 36 l53 27 10 -21 c5
-12 96 -211 202 -441z m1753 398 c0 -10 -373 -711 -390 -734 -6 -8 35 74 90
182 56 109 95 195 87 192 -25 -9 -27 10 -6 55 11 24 18 46 16 48 -4 3 -148
-299 -250 -524 -28 -62 -53 -111 -55 -109 -3 4 116 277 328 757 l83 187 49
-23 c27 -12 49 -27 48 -31z m-983 -26 c-3 -8 -6 -5 -6 6 -1 11 2 17 5 13 3 -3
4 -12 1 -19z m791 -53 c2 -2 -3 -14 -11 -27 -8 -12 -57 -116 -107 -231 -51
-114 -95 -206 -97 -204 -2 2 17 51 42 108 42 95 44 105 29 116 -15 11 -15 18
10 84 15 39 25 73 23 75 -2 2 -64 -156 -137 -351 -74 -195 -136 -353 -138
-350 -3 3 214 628 279 802 l8 23 48 -21 c26 -11 49 -22 51 -24z m-1558 21 c0
-7 47 -143 105 -301 58 -159 104 -290 102 -292 -3 -2 -21 42 -42 97 -21 55
-41 100 -45 100 -4 0 -12 -6 -18 -13 -8 -10 1 -41 38 -122 28 -60 48 -110 46
-112 -2 -2 -56 110 -121 249 -65 139 -131 279 -146 311 l-28 58 27 10 c15 6
36 15 47 19 29 12 35 12 35 -4z m767 -203 c-1 -43 -3 -10 -3 72 0 83 2 118 3
78 2 -40 2 -107 0 -150z m-367 92 c0 -14 16 -116 35 -226 20 -111 34 -206 32
-212 -2 -7 -9 22 -16 63 -10 65 -50 176 -51 144 0 -7 18 -96 40 -199 40 -189
44 -213 35 -203 -5 4 -155 629 -155 643 0 3 27 9 68 14 7 0 12 -10 12 -24z
m1400 -53 c0 -5 -7 -17 -16 -28 -14 -17 -15 -17 -10 -1 3 10 6 23 6 28 0 5 5
9 10 9 6 0 10 -4 10 -8z m-1450 -226 c0 -7 -12 -16 -27 -19 -16 -4 -49 -13
-75 -21 -40 -12 -47 -13 -52 -1 -4 11 12 20 57 34 75 24 97 25 97 7z m207
-138 c-2 -13 -4 -3 -4 22 0 25 2 35 4 23 2 -13 2 -33 0 -45z m764 -15 c-11
-21 -20 -35 -21 -31 0 12 33 78 38 74 2 -2 -6 -21 -17 -43z m-117 -37 c-9 -26
-18 -45 -20 -43 -2 2 3 25 12 51 9 26 18 45 20 43 2 -2 -3 -25 -12 -51z m1850
33 c43 -34 32 -95 -24 -124 -17 -9 -30 -13 -30 -11 0 3 14 12 30 21 43 22 37
35 -15 35 -41 0 -45 -2 -45 -25 0 -20 -5 -25 -27 -26 -16 -1 -32 -2 -38 -4 -5
-1 -16 -3 -22 -3 -7 -1 -13 -9 -13 -18 0 -14 2 -13 17 1 16 16 17 16 29 0 8
-10 18 -14 26 -10 10 6 10 5 1 -5 -8 -9 -33 -13 -70 -12 -62 2 -108 -14 -108
-38 0 -10 -10 -15 -27 -15 -16 -1 -34 -7 -40 -14 -10 -11 -10 -12 0 -7 8 5 12
-1 12 -18 0 -21 -10 -31 -51 -52 -28 -14 -49 -21 -46 -17 7 11 -82 1 -101 -10
-6 -5 -12 -15 -12 -23 0 -8 -9 -14 -20 -14 -21 0 -80 -26 -80 -36 0 -2 9 0 19
5 14 8 20 7 25 -4 3 -9 -3 -19 -16 -26 -16 -9 -19 -8 -13 2 6 9 2 10 -16 6
-13 -4 -32 -7 -41 -7 -10 0 -18 -7 -18 -15 0 -8 5 -15 12 -15 9 0 9 -3 0 -12
-6 -6 -30 -11 -53 -10 -42 2 -74 -13 -63 -29 3 -5 18 -2 35 6 16 9 29 13 29
10 0 -2 -18 -14 -41 -26 -23 -11 -38 -16 -34 -10 9 16 -22 13 -62 -5 -21 -11
-31 -20 -25 -26 6 -6 21 -4 41 6 17 9 31 14 31 12 0 -13 -68 -39 -97 -37 -24
1 -33 -3 -33 -14 0 -9 5 -13 10 -10 6 3 10 4 10 1 0 -12 -47 -30 -74 -28 -33
3 -64 -17 -45 -29 8 -4 -7 -17 -39 -33 -54 -27 -73 -28 -24 -2 l27 15 -33 -3
c-28 -3 -31 -1 -20 13 12 14 11 14 -12 0 -14 -9 -46 -28 -73 -43 -26 -15 -44
-32 -41 -37 7 -12 34 -12 34 1 0 5 7 7 15 4 9 -4 15 -1 15 8 0 7 9 19 19 25
15 10 20 9 25 -2 3 -9 -13 -23 -46 -40 -48 -25 -51 -25 -64 -8 -7 10 -14 20
-14 23 0 4 992 628 1174 738 80 48 93 50 130 21z m-2667 -41 c-3 -8 -6 -5 -6
6 -1 11 2 17 5 13 3 -3 4 -12 1 -19z m90 -10 c-3 -7 -5 -2 -5 12 0 14 2 19 5
13 2 -7 2 -19 0 -25z m90 -20 c-2 -13 -4 -5 -4 17 -1 22 1 32 4 23 2 -10 2
-28 0 -40z m714 -15 c-11 -21 -20 -35 -21 -31 0 12 33 78 38 74 2 -2 -6 -21
-17 -43z m-1047 -23 c5 -17 4 -20 -2 -10 -5 8 -13 26 -16 40 -5 17 -4 20 2 10
5 -8 13 -26 16 -40z m2108 38 c3 -7 -48 -56 -111 -108 -299 -248 -563 -461
-567 -457 -5 4 656 575 668 576 3 1 8 -5 10 -11z m-2991 -184 c120 -102 222
-191 226 -197 4 -7 -13 4 -37 24 -25 19 -85 66 -135 103 -83 63 -85 64 -32 16
32 -29 56 -59 55 -68 -2 -10 48 -52 144 -121 132 -95 210 -156 133 -104 -33
22 -638 444 -644 449 -5 5 53 84 62 84 5 0 107 -84 228 -186z m1136 154 c-3
-7 -5 -2 -5 12 0 14 2 19 5 13 2 -7 2 -19 0 -25z m2068 -7 c-15 -13 -586 -418
-710 -502 -125 -86 -135 -92 -135 -85 0 7 26 26 489 365 235 171 348 248 355
241 6 -6 6 -13 1 -19z m-184 -8 c13 -16 12 -17 -3 -4 -17 13 -22 21 -14 21 2
0 10 -8 17 -17z m-2122 -108 c0 -5 -13 15 -29 45 -16 30 -29 60 -29 65 0 6 13
-15 29 -45 16 -30 29 -59 29 -65z m328 63 c-2 -13 -4 -5 -4 17 -1 22 1 32 4
23 2 -10 2 -28 0 -40z m1547 15 l19 -26 -25 -21 c-14 -12 -80 -67 -147 -124
-66 -57 -121 -101 -121 -98 0 4 228 201 269 233 14 10 14 13 1 27 -14 14 -26
6 -115 -76 -306 -280 -386 -350 -391 -346 -5 6 475 458 485 458 3 0 15 -12 25
-27z m465 -2 c18 -25 19 -30 5 -35 -9 -3 -12 -2 -9 5 4 5 -1 21 -9 34 -23 35
-12 31 13 -4z m-2092 -3 c-3 -8 -6 -5 -6 6 -1 11 2 17 5 13 3 -3 4 -12 1 -19z
m749 -15 c-8 -15 -15 -25 -16 -21 0 12 23 58 27 54 3 -2 -2 -17 -11 -33z
m1144 23 c0 -3 -15 -14 -32 -26 l-33 -22 30 26 c31 27 35 29 35 22z m-1241
-45 c-6 -18 -13 -30 -15 -28 -2 2 1 18 7 36 6 18 13 30 15 28 2 -2 -1 -18 -7
-36z m171 -21 c-17 -33 -33 -60 -35 -60 -3 0 8 27 25 60 17 33 33 60 35 60 3
0 -8 -27 -25 -60z m-1050 5 c0 -5 -5 -3 -10 5 -5 8 -10 20 -10 25 0 6 5 3 10
-5 5 -8 10 -19 10 -25z m2046 7 c-2 -4 -26 -23 -53 -41 -55 -39 -47 -27 12 18
42 32 49 36 41 23z m239 -8 c-26 -20 -55 -36 -55 -30 0 5 63 46 70 46 3 -1 -4
-8 -15 -16z m-1349 -51 c-8 -15 -15 -25 -16 -21 0 12 23 58 27 54 3 -2 -2 -17
-11 -33z m1609 28 c3 -6 -5 -15 -17 -21 -21 -10 -21 -10 -6 3 10 8 15 17 11
20 -3 4 -4 7 0 7 3 0 8 -4 12 -9z m-3182 -8 c3 -5 -18 -34 -47 -65 -35 -40
-55 -55 -64 -49 -10 6 0 22 38 64 51 56 64 65 73 50z m2857 -8 c0 -2 -10 -9
-22 -15 -22 -11 -22 -10 -4 4 21 17 26 19 26 11z m-2270 -40 c0 -5 -5 -3 -10
5 -5 8 -10 20 -10 25 0 6 5 3 10 -5 5 -8 10 -19 10 -25z m-32 -10 c-3 -3 -9 2
-12 12 -6 14 -5 15 5 6 7 -7 10 -15 7 -18z m969 19 c-3 -3 -12 -4 -19 -1 -8 3
-5 6 6 6 11 1 17 -2 13 -5z m1053 2 c0 -3 -15 -14 -32 -26 l-33 -22 30 26 c31
27 35 29 35 22z m-1275 -42 c472 -90 839 -497 874 -969 21 -305 -67 -576 -262
-807 -148 -174 -384 -308 -620 -353 -102 -19 -292 -19 -394 0 -320 61 -600
265 -753 548 -90 166 -130 328 -130 524 0 288 111 557 314 759 258 258 610
366 971 298z m1475 21 c0 -2 -10 -9 -22 -15 -22 -11 -22 -10 -4 4 21 17 26 19
26 11z m-270 -29 c0 -2 -8 -10 -17 -17 -16 -13 -17 -12 -4 4 13 16 21 21 21
13z m190 -21 c0 -2 -10 -9 -22 -15 -22 -11 -22 -10 -4 4 21 17 26 19 26 11z
m-234 -13 c-2 -4 -26 -23 -53 -41 -55 -39 -47 -27 12 18 42 32 49 36 41 23z
m464 -17 c0 -2 -10 -9 -22 -15 -22 -11 -22 -10 -4 4 21 17 26 19 26 11z
m-2965 -25 c10 -11 16 -20 13 -20 -3 0 -13 9 -23 20 -10 11 -16 20 -13 20 3 0
13 -9 23 -20z m2640 -6 c-26 -20 -55 -36 -55 -30 0 5 63 46 70 46 3 -1 -4 -8
-15 -16z m-395 -18 c0 -6 -182 -161 -200 -170 -8 -5 3 7 25 25 22 19 69 60
105 91 66 58 70 61 70 54z m150 -10 c0 -3 -15 -14 -32 -26 l-33 -22 30 26 c31
27 35 29 35 22z m180 -11 c0 -2 -10 -9 -22 -15 -22 -11 -22 -10 -4 4 21 17 26
19 26 11z m-2550 -40 c13 -14 21 -25 18 -25 -2 0 -15 11 -28 25 -13 14 -21 25
-18 25 2 0 15 -11 28 -25z m2780 21 c0 -2 -7 -7 -16 -10 -8 -3 -12 -2 -9 4 6
10 25 14 25 6z m-2525 -36 c10 -11 16 -20 13 -20 -3 0 -13 9 -23 20 -10 11
-16 20 -13 20 3 0 13 -9 23 -20z m2045 16 c0 -2 -8 -10 -17 -17 -16 -13 -17
-12 -4 4 13 16 21 21 21 13z m155 -22 c-26 -20 -55 -36 -55 -30 0 5 63 46 70
46 3 -1 -4 -8 -15 -16z m-199 -12 c-2 -4 -26 -23 -53 -41 -55 -39 -47 -27 12
18 42 32 49 36 41 23z m134 -27 c0 -2 -10 -9 -22 -15 -22 -11 -22 -10 -4 4 21
17 26 19 26 11z m-240 -49 c0 -3 -15 -14 -32 -26 l-33 -22 30 26 c31 27 35 29
35 22z m145 -12 c-26 -20 -55 -36 -55 -30 0 5 63 46 70 46 3 -1 -4 -8 -15 -16z
m-65 -39 c0 -2 -10 -9 -22 -15 -22 -11 -22 -10 -4 4 21 17 26 19 26 11z m-94
-60 c-11 -8 -25 -15 -30 -15 -6 1 0 7 14 15 32 19 40 18 16 0z m-2541 -234 c3
-5 -2 -16 -10 -24 -8 -9 -15 -21 -15 -28 0 -7 -2 -10 -5 -7 -3 3 -2 19 1 36 6
32 18 41 29 23z m3334 -55 c-2 -3 -146 -34 -318 -71 -173 -36 -318 -68 -322
-71 -5 -3 -9 -1 -9 3 0 13 633 161 644 151 5 -4 8 -10 5 -12z m-3361 -67 c-1
-17 -8 -29 -16 -29 -10 0 -12 7 -8 23 3 12 6 28 6 35 0 7 5 10 10 7 6 -4 9
-20 8 -36z m-138 -45 c173 -31 343 -60 378 -66 34 -6 60 -13 58 -15 -5 -5
-162 16 -504 68 -145 22 -271 38 -280 36 -10 -2 4 -7 31 -11 36 -5 47 -11 47
-26 0 -24 12 -27 124 -36 53 -4 94 -9 92 -12 -3 -2 -78 1 -166 8 -156 13 -161
14 -156 34 3 12 6 36 6 54 0 31 2 33 28 28 15 -3 169 -31 342 -62z m3725 55
c4 -6 5 -12 3 -14 -9 -9 -859 -147 -866 -140 -2 2 11 7 29 10 19 3 210 39 424
80 215 40 393 73 397 74 4 1 10 -4 13 -10z m2 -76 c-3 -10 -5 -4 -5 12 0 17 2
24 5 18 2 -7 2 -21 0 -30z m-3280 -9 c-3 -3 -12 -4 -19 -1 -8 3 -5 6 6 6 11 1
17 -2 13 -5z m60 -10 c-3 -3 -12 -4 -19 -1 -8 3 -5 6 6 6 11 1 17 -2 13 -5z
m3186 -1 c-7 -2 -21 -2 -30 0 -10 3 -4 5 12 5 17 0 24 -2 18 -5z m-95 -10
c-10 -2 -26 -2 -35 0 -10 3 -2 5 17 5 19 0 27 -2 18 -5z m-95 -10 c-7 -2 -21
-2 -30 0 -10 3 -4 5 12 5 17 0 24 -2 18 -5z m-3804 -23 c587 -55 747 -71 761
-75 25 -7 -199 4 -498 26 -155 11 -295 18 -310 16 -18 -3 -14 -4 16 -6 34 -1
42 -5 42 -20 0 -15 11 -19 77 -25 42 -3 126 -6 186 -6 61 0 108 -3 104 -6 -3
-3 -149 -2 -326 2 l-320 7 2 53 c2 65 -25 61 266 34z m334 13 c-13 -2 -35 -2
-50 0 -16 2 -5 4 22 4 28 0 40 -2 28 -4z m3375 0 c-10 -2 -26 -2 -35 0 -10 3
-2 5 17 5 19 0 27 -2 18 -5z m492 -8 c0 -8 -3 -15 -7 -15 -5 0 -152 -13 -328
-29 -176 -17 -396 -35 -490 -41 -93 -6 -177 -15 -185 -18 -8 -4 23 -9 70 -12
l85 -6 -87 -2 c-82 -2 -88 -1 -88 18 0 16 7 20 30 20 26 0 617 63 830 88 123
15 170 14 170 -3z m-3767 -2 c-13 -2 -33 -2 -45 0 -13 2 -3 4 22 4 25 0 35 -2
23 -4z m3185 0 c-10 -2 -26 -2 -35 0 -10 3 -2 5 17 5 19 0 27 -2 18 -5z
m-3070 -10 c-10 -2 -28 -2 -40 0 -13 2 -5 4 17 4 22 1 32 -1 23 -4z m239 1
c-3 -3 -12 -4 -19 -1 -8 3 -5 6 6 6 11 1 17 -2 13 -5z m2731 -1 c-10 -2 -26
-2 -35 0 -10 3 -2 5 17 5 19 0 27 -2 18 -5z m-2865 -10 c-13 -2 -33 -2 -45 0
-13 2 -3 4 22 4 25 0 35 -2 23 -4z m2785 0 c-10 -2 -28 -2 -40 0 -13 2 -5 4
17 4 22 1 32 -1 23 -4z m-2660 -10 c-10 -2 -28 -2 -40 0 -13 2 -5 4 17 4 22 1
32 -1 23 -4z m2550 0 c-10 -2 -26 -2 -35 0 -10 3 -2 5 17 5 19 0 27 -2 18 -5z
m869 -45 c-2 -13 -4 -5 -4 17 -1 22 1 32 4 23 2 -10 2 -28 0 -40z m-959 35
c-10 -2 -26 -2 -35 0 -10 3 -2 5 17 5 19 0 27 -2 18 -5z m-2425 -18 c-3 -9 -8
-14 -10 -11 -3 3 -2 9 2 15 9 16 15 13 8 -4z m3325 -32 c-21 -2 -55 -2 -75 0
-21 2 -4 4 37 4 41 0 58 -2 38 -4z m-265 -10 c-29 -2 -77 -2 -105 0 -29 2 -6
3 52 3 58 0 81 -1 53 -3z m-3235 -10 c-27 -2 -69 -2 -95 0 -27 2 -5 3 47 3 52
0 74 -1 48 -3z m2930 0 c-21 -2 -55 -2 -75 0 -21 2 -4 4 37 4 41 0 58 -2 38
-4z m-3493 -29 c369 -9 681 -20 695 -24 17 -6 -4 -9 -70 -11 l-95 -3 89 -5
c52 -4 91 -11 93 -17 7 -20 -264 -26 -1090 -25 -469 1 -452 -1 -431 59 12 35
50 53 99 47 22 -2 341 -12 710 -21z m4576 15 c24 -12 40 -49 33 -76 -5 -19
-25 -19 -761 -22 -687 -2 -754 -1 -751 13 2 13 22 17 102 21 55 3 101 7 104
10 3 3 -44 6 -104 7 -92 2 -98 3 -34 6 80 4 1262 48 1343 51 27 0 57 -4 68
-10z m-5346 -127 c-3 -3 -11 0 -18 7 -9 10 -8 11 6 5 10 -3 15 -9 12 -12z
m598 11 c-18 -2 -48 -2 -65 0 -18 2 -4 4 32 4 36 0 50 -2 33 -4z m4145 0 c-16
-2 -40 -2 -55 0 -16 2 -3 4 27 4 30 0 43 -2 28 -4z m-4430 -10 c-21 -2 -57 -2
-80 0 -24 2 -7 4 37 4 44 0 63 -2 43 -4z m4830 0 c-10 -2 -28 -2 -40 0 -13 2
-5 4 17 4 22 1 32 -1 23 -4z m-5095 -10 c-7 -2 -19 -2 -25 0 -7 3 -2 5 12 5
14 0 19 -2 13 -5z m3784 -309 c-3 -3 -12 -4 -19 -1 -8 3 -5 6 6 6 11 1 17 -2
13 -5z m70 -20 c-3 -3 -12 -4 -19 -1 -8 3 -5 6 6 6 11 1 17 -2 13 -5z m307
-90 c122 -36 225 -68 229 -71 5 -3 5 -9 0 -14 -6 -6 -98 20 -234 67 -123 42
-226 78 -228 80 -11 10 26 0 233 -62z m-2749 10 c-60 -24 -242 -97 -402 -161
-209 -83 -293 -121 -293 -132 -1 -9 -7 -4 -16 12 -9 16 -14 30 -12 31 2 2 165
62 363 135 198 72 376 138 395 146 19 8 44 14 55 14 11 0 -29 -20 -90 -45z
m35 -14 c-19 -11 -39 -19 -45 -19 -5 0 6 8 25 19 19 11 40 19 45 19 6 0 -6 -8
-25 -19z m2430 0 c8 -5 11 -10 5 -10 -5 0 -17 5 -25 10 -8 5 -10 10 -5 10 6 0
17 -5 25 -10z m-2347 -17 c-6 -2 -87 -41 -180 -87 -92 -45 -294 -143 -448
-216 -154 -73 -285 -139 -291 -147 -10 -11 -13 -11 -24 2 -7 9 -11 18 -8 20
12 13 954 442 958 437 3 -2 0 -7 -7 -9z m2717 -113 c287 -100 320 -114 308
-125 -7 -7 -615 218 -628 233 -6 7 -26 13 320 -108z m-2690 95 c0 -2 -10 -9
-22 -15 -22 -11 -22 -10 -4 4 21 17 26 19 26 11z m-250 -30 c-14 -8 -29 -14
-35 -14 -5 0 1 6 15 14 14 8 30 14 35 14 6 0 -1 -6 -15 -14z m2540 -15 c19
-11 31 -19 25 -19 -5 0 -26 8 -45 19 -19 11 -30 19 -25 19 6 0 26 -8 45 -19z
m-2257 -16 c18 -22 18 -22 -44 -60 -34 -20 -68 -37 -75 -37 -7 0 -12 -4 -11
-8 1 -4 -71 -53 -160 -108 -90 -55 -180 -112 -200 -126 -21 -14 -39 -22 -41
-17 -4 14 -72 1 -72 -14 0 -17 22 -18 38 -2 6 6 14 9 18 6 10 -11 -59 -42 -85
-39 -18 2 -22 -1 -18 -13 5 -11 -5 -23 -31 -39 -95 -59 -115 -70 -108 -59 5 8
-5 10 -31 8 -21 -2 -37 -6 -35 -10 1 -3 2 -13 2 -21 0 -13 4 -13 27 2 15 10
24 12 19 5 -4 -6 -21 -19 -38 -28 -20 -10 -28 -11 -23 -3 6 9 0 11 -25 6 -18
-4 -41 -7 -51 -7 -14 0 -19 -7 -19 -25 0 -20 -5 -25 -25 -25 -20 0 -25 -5 -25
-24 0 -14 -5 -28 -12 -32 -7 -4 -8 -3 -4 4 5 8 -7 10 -41 8 -42 -4 -48 -7 -48
-28 0 -21 -5 -23 -52 -26 -49 -3 -53 -5 -53 -28 0 -19 -5 -24 -25 -24 -26 0
-35 -25 -13 -33 7 -2 2 -2 -12 0 -56 9 -70 88 -22 123 20 15 1277 699 1277
696 0 -1 8 -11 18 -22z m-143 1 c0 -2 -13 -11 -30 -20 -38 -19 -40 -11 -2 9
31 17 32 18 32 11z m2230 -9 c0 -3 -4 -8 -10 -11 -5 -3 -10 -1 -10 4 0 6 5 11
10 11 6 0 10 -2 10 -4z m599 -165 c200 -89 366 -163 369 -166 2 -2 1 -12 -2
-22 -5 -11 -9 -14 -14 -6 -4 6 -171 88 -372 183 -201 94 -367 174 -370 177 -8
9 1 6 389 -166z m-3109 139 c-19 -11 -39 -19 -45 -19 -5 0 6 8 25 19 19 11 40
19 45 19 6 0 -6 -8 -25 -19z m170 -25 c0 -2 -18 -14 -40 -25 -22 -11 -40 -18
-40 -15 0 2 17 13 38 24 42 23 42 23 42 16z m2610 -96 c94 -50 175 -87 181
-83 7 4 9 3 6 -3 -8 -13 50 -46 65 -37 7 5 8 3 3 -6 -6 -10 -4 -12 9 -7 11 5
15 3 10 -5 -5 -8 -2 -9 10 -5 11 5 15 3 10 -5 -5 -8 -2 -9 10 -5 11 5 15 3 10
-5 -5 -8 -2 -9 10 -5 10 4 15 3 11 -3 -7 -12 92 -63 106 -55 5 4 8 2 7 -4 -2
-6 111 -73 249 -149 139 -76 265 -147 280 -159 24 -17 26 -22 14 -37 -7 -9
-19 -16 -27 -16 -7 0 -125 65 -261 144 -214 124 -362 211 -800 472 -70 42 -98
64 -78 64 2 0 81 -41 175 -91z m-2910 61 c-19 -11 -39 -19 -45 -19 -5 0 6 8
25 19 19 11 40 19 45 19 6 0 -6 -8 -25 -19z m170 -35 c0 -2 -18 -14 -40 -25
-22 -11 -40 -18 -40 -15 0 2 17 13 38 24 42 23 42 23 42 16z m-320 -35 c-19
-11 -39 -19 -45 -19 -5 0 6 8 25 19 19 11 40 19 45 19 6 0 -6 -8 -25 -19z
m210 -25 c0 -2 -18 -14 -40 -25 -22 -11 -40 -18 -40 -15 0 2 17 13 38 24 42
23 42 23 42 16z m3140 -50 c0 -3 -22 6 -50 20 -27 14 -50 28 -50 30 0 3 23 -6
50 -20 28 -14 50 -28 50 -30z m-3470 20 c-14 -8 -29 -14 -35 -14 -5 0 1 6 15
14 14 8 30 14 35 14 6 0 -1 -6 -15 -14z m200 -40 c0 -2 -18 -14 -40 -25 -22
-11 -40 -18 -40 -15 0 2 17 13 38 24 42 23 42 23 42 16z m3440 -70 c0 -3 -22
6 -50 20 -27 14 -50 28 -50 30 0 3 23 -6 50 -20 28 -14 50 -28 50 -30z m-3570
0 c0 -2 -18 -14 -40 -25 -22 -11 -40 -18 -40 -15 0 2 17 13 38 24 42 23 42 23
42 16z m1028 -32 c-14 -16 -157 -197 -423 -535 -91 -115 -125 -147 -125 -117
0 6 69 93 152 192 84 100 208 248 276 330 68 81 127 147 130 147 3 0 -2 -8
-10 -17z m2512 -9 c0 -2 -9 0 -20 6 -11 6 -20 13 -20 16 0 2 9 0 20 -6 11 -6
20 -13 20 -16z m180 -39 c0 -3 -22 6 -50 20 -27 14 -50 28 -50 30 0 3 23 -6
50 -20 28 -14 50 -28 50 -30z m-310 9 c0 -2 -9 0 -20 6 -11 6 -20 13 -20 16 0
2 9 0 20 -6 11 -6 20 -13 20 -16z m-2304 4 c4 -6 3 -8 -2 -5 -6 3 -140 -189
-298 -428 -194 -290 -293 -432 -303 -428 -7 3 -13 9 -13 14 0 10 598 859 605
859 2 0 7 -5 11 -12z m-1236 -3 c0 -2 -13 -11 -30 -20 -38 -19 -40 -11 -2 9
31 17 32 18 32 11z m2600 1 c0 -2 -8 -10 -17 -17 -16 -13 -17 -12 -4 4 13 16
21 21 21 13z m1240 -61 c0 -3 -18 4 -40 15 -22 11 -40 23 -40 25 0 3 18 -4 40
-15 22 -11 40 -23 40 -25z m-2618 -213 c-63 -119 -119 -221 -125 -227 -7 -7
-8 -6 -3 3 4 6 2 12 -4 12 -7 0 -9 -7 -6 -16 6 -16 -82 -199 -91 -190 -3 2 0
14 7 25 9 17 8 21 -5 21 -8 0 -15 -9 -15 -19 0 -11 -3 -27 -7 -37 -4 -12 -3
-15 6 -10 7 5 1 -15 -13 -43 -15 -28 -29 -51 -31 -51 -3 0 1 13 10 29 11 23
12 30 2 34 -9 3 -9 8 2 21 8 9 11 19 8 22 -9 9 -37 -52 -37 -79 0 -16 -7 -26
-19 -30 -21 -5 -40 -79 -22 -85 10 -3 -13 -62 -25 -62 -2 0 0 9 6 19 15 28 13
33 -12 29 -19 -2 -24 -10 -26 -46 -2 -29 0 -42 7 -37 6 3 8 0 5 -8 -3 -9 -13
-13 -24 -10 -16 4 -18 9 -9 27 8 17 7 16 -10 -4 -20 -24 -25 -41 -22 -67 1 -7
-5 -13 -13 -13 -21 0 -46 -52 -39 -80 5 -19 3 -22 -10 -17 -13 5 -22 -3 -35
-27 -9 -18 -27 -51 -38 -72 -12 -22 -23 -43 -25 -49 -2 -5 -12 -8 -21 -7 -12
2 -18 -3 -18 -17 0 -12 5 -21 12 -21 6 0 9 -3 5 -6 -23 -23 -77 46 -63 81 3 9
177 295 387 635 379 617 381 619 403 604 l23 -15 -115 -217z m2398 222 c0 -2
-9 0 -20 6 -11 6 -20 13 -20 16 0 2 9 0 20 -6 11 -6 20 -13 20 -16z m280 16
c0 -5 -2 -10 -4 -10 -3 0 -8 5 -11 10 -3 6 -1 10 4 10 6 0 11 -4 11 -10z
m-2669 -17 c-5 -10 -17 -27 -26 -38 -16 -19 -17 -19 -3 5 26 46 29 50 34 50 3
0 0 -8 -5 -17z m1289 -3 c0 -5 -5 -10 -11 -10 -5 0 -7 5 -4 10 3 6 8 10 11 10
2 0 4 -4 4 -10z m1150 -26 c0 -2 -9 0 -20 6 -11 6 -20 13 -20 16 0 2 9 0 20
-6 11 -6 20 -13 20 -16z m320 -59 c0 -3 -18 4 -40 15 -22 11 -40 23 -40 25 0
3 18 -4 40 -15 22 -11 40 -23 40 -25z m-240 9 c0 -2 -9 0 -20 6 -11 6 -20 13
-20 16 0 2 9 0 20 -6 11 -6 20 -13 20 -16z m-2569 -1 c-5 -10 -17 -27 -26 -38
-16 -19 -17 -19 -3 5 26 46 29 50 34 50 3 0 0 -8 -5 -17z m2619 -29 c0 -2 -9
0 -20 6 -11 6 -20 13 -20 16 0 2 9 0 20 -6 11 -6 20 -13 20 -16z m65 -39 l20
-16 -20 10 c-11 5 -29 17 -40 26 l-20 16 20 -10 c11 -5 29 -17 40 -26z m275
-20 c0 -3 -18 4 -40 15 -22 11 -40 23 -40 25 0 3 18 -4 40 -15 22 -11 40 -23
40 -25z m-1414 -172 c360 -587 536 -888 526 -903 -25 -41 -45 -17 -165 195
-223 393 -486 870 -489 885 -2 8 -7 18 -13 22 -6 5 -6 8 2 8 6 0 69 -93 139
-207z m-2756 192 c0 -2 -10 -10 -22 -16 -21 -11 -22 -11 -9 4 13 16 31 23 31
12z m1160 -15 c-6 -11 -13 -20 -16 -20 -2 0 0 9 6 20 6 11 13 20 16 20 2 0 0
-9 -6 -20z m607 -2 c-3 -8 -6 -5 -6 6 -1 11 2 17 5 13 3 -3 4 -12 1 -19z m91
5 c-10 -2 -18 -17 -21 -36 -4 -31 -4 -31 -5 6 -2 33 1 37 21 36 15 -1 17 -3 5
-6z m72 -3 c0 -5 -2 -10 -4 -10 -3 0 -8 5 -11 10 -3 6 -1 10 4 10 6 0 11 -4
11 -10z m2030 -26 c0 -2 -9 0 -20 6 -11 6 -20 13 -20 16 0 2 9 0 20 -6 11 -6
20 -13 20 -16z m-2203 -31 c-3 -10 -5 -4 -5 12 0 17 2 24 5 18 2 -7 2 -21 0
-30z m110 -96 c-2 -23 -3 -1 -3 48 0 50 1 68 3 42 2 -26 2 -67 0 -90z m-749
85 c-34 -57 -63 -94 -37 -47 32 57 51 85 56 85 2 0 -6 -17 -19 -38z m821 -457
c6 -247 12 -555 13 -684 3 -213 1 -235 -14 -245 -14 -8 -21 -7 -34 6 -15 15
-16 51 -15 340 2 178 4 337 6 353 1 17 6 185 10 375 4 190 11 336 15 325 4
-11 12 -222 19 -470z m2101 449 c0 -2 -9 0 -20 6 -11 6 -20 13 -20 16 0 2 9 0
20 -6 11 -6 20 -13 20 -16z m-2345 -383 c-30 -198 -55 -365 -55 -371 0 -5 -7
-10 -16 -10 -10 0 -14 6 -11 18 3 9 34 181 68 381 35 200 65 359 67 353 1 -5
-22 -172 -53 -371z m115 57 c-12 -161 -27 -365 -35 -453 -7 -88 -11 -163 -9
-167 3 -5 -2 -8 -12 -8 -15 0 -16 8 -11 63 37 427 82 888 85 875 2 -9 -6 -149
-18 -310z m2280 296 c0 -2 -9 0 -20 6 -11 6 -20 13 -20 16 0 2 9 0 20 -6 11
-6 20 -13 20 -16z m-4330 -29 c0 -2 -10 -9 -22 -15 -22 -11 -22 -10 -4 4 21
17 26 19 26 11z m1291 -42 c-5 -10 -17 -27 -26 -38 -16 -19 -17 -19 -3 5 26
46 29 50 34 50 3 0 0 -8 -5 -17z m-51 -83 c-6 -11 -13 -20 -16 -20 -2 0 0 9 6
20 6 11 13 20 16 20 2 0 0 -9 -6 -20z m-29 -47 c-5 -10 -17 -27 -26 -38 -16
-19 -17 -19 -3 5 26 46 29 50 34 50 3 0 0 -8 -5 -17z m886 -215 c-2 -35 -3 -7
-3 62 0 69 1 97 3 63 2 -35 2 -91 0 -125z m120 150 c-3 -8 -6 -5 -6 6 -1 11 2
17 5 13 3 -3 4 -12 1 -19z m-1057 -18 c-6 -11 -13 -20 -16 -20 -2 0 0 9 6 20
6 11 13 20 16 20 2 0 0 -9 -6 -20z m1910 -20 c6 -11 8 -20 6 -20 -3 0 -10 9
-16 20 -6 11 -8 20 -6 20 3 0 10 -9 16 -20z m100 0 c6 -11 8 -20 6 -20 -3 0
-10 9 -16 20 -6 11 -8 20 -6 20 3 0 10 -9 16 -20z m-2039 -27 c-5 -10 -17 -27
-26 -38 -16 -19 -17 -19 -3 5 26 46 29 50 34 50 3 0 0 -8 -5 -17z m-166 -5 c5
4 5 1 1 -6 -6 -10 -11 -10 -22 -1 -8 6 -14 14 -14 16 0 3 6 0 13 -6 8 -6 18
-7 22 -3z m2255 -48 c6 -11 8 -20 6 -20 -3 0 -10 9 -16 20 -6 11 -8 20 -6 20
3 0 10 -9 16 -20z m-2140 -30 c-6 -11 -13 -20 -16 -20 -2 0 0 9 6 20 6 11 13
20 16 20 2 0 0 -9 -6 -20z m2055 -10 c9 -16 13 -30 11 -30 -3 0 -12 14 -21 30
-9 17 -13 30 -11 30 3 0 12 -13 21 -30z m-2084 -37 c-5 -10 -17 -27 -26 -38
-16 -19 -17 -19 -3 5 26 46 29 50 34 50 3 0 0 -8 -5 -17z m2219 -3 c6 -11 8
-20 6 -20 -3 0 -10 9 -16 20 -6 11 -8 20 -6 20 3 0 10 -9 16 -20z m-2082 -55
c-6 -14 -13 -23 -15 -21 -5 5 15 46 22 46 3 0 -1 -11 -7 -25z m2017 -35 c14
-27 23 -50 20 -50 -2 0 -16 23 -30 50 -14 28 -23 50 -20 50 2 0 16 -22 30 -50z
m-2211 1 c-16 -28 -18 -29 -41 -14 -29 19 -30 28 -1 12 19 -10 24 -9 36 10 21
31 26 25 6 -8z m2347 -26 l10 -20 -16 20 c-9 11 -21 29 -26 40 l-10 20 16 -20
c9 -11 21 -29 26 -40z m-1114 -47 c-2 -18 -4 -4 -4 32 0 36 2 50 4 33 2 -18 2
-48 0 -65z m1143 2 c6 -11 8 -20 6 -20 -3 0 -10 9 -16 20 -6 11 -8 20 -6 20 3
0 10 -9 16 -20z m-1283 -133 c-2 -23 -3 -1 -3 48 0 50 1 68 3 42 2 -26 2 -67
0 -90z m1178 93 c9 -16 13 -30 11 -30 -3 0 -12 14 -21 30 -9 17 -13 30 -11 30
3 0 12 -13 21 -30z m176 -75 l10 -20 -16 20 c-9 11 -21 29 -26 40 l-10 20 16
-20 c9 -11 21 -29 26 -40z m-2371 -5 c-11 -22 -23 -40 -25 -40 -3 0 4 18 15
40 11 22 23 40 25 40 3 0 -4 -18 -15 -40z m2260 -40 c11 -22 18 -40 15 -40 -2
0 -14 18 -25 40 -11 22 -18 40 -15 40 2 0 14 -18 25 -40z m161 -35 l10 -20
-16 20 c-9 11 -21 29 -26 40 l-10 20 16 -20 c9 -11 21 -29 26 -40z m-1254 -87
c-2 -24 -4 -7 -4 37 0 44 2 63 4 43 2 -21 2 -57 0 -80z m1304 7 l10 -20 -16
20 c-9 11 -21 29 -26 40 l-10 20 16 -20 c9 -11 21 -29 26 -40z m-2561 -15
c-11 -22 -23 -40 -25 -40 -3 0 4 18 15 40 11 22 23 40 25 40 3 0 -4 -18 -15
-40z m2420 0 c11 -22 18 -40 15 -40 -2 0 -14 18 -25 40 -11 22 -18 40 -15 40
2 0 14 -18 25 -40z m168 -35 c-3 -3 -9 2 -12 12 -6 14 -5 15 5 6 7 -7 10 -15
7 -18z m-2653 -75 c-10 -11 -25 -20 -34 -19 -11 0 -9 3 5 9 12 5 25 13 29 19
3 6 9 11 12 11 3 0 -2 -9 -12 -20z m2546 3 c13 -16 12 -17 -3 -4 -17 13 -22
21 -14 21 2 0 10 -8 17 -17z m-1214 -180 c-2 -32 -3 -6 -3 57 0 63 1 89 3 58
2 -32 2 -84 0 -115z"/>
<path d="M1530 4980 c6 -11 13 -20 16 -20 2 0 0 9 -6 20 -6 11 -13 20 -16 20
-2 0 0 -9 6 -20z"/>
<path d="M2501 4504 c0 -11 3 -14 6 -6 3 7 2 16 -1 19 -3 4 -6 -2 -5 -13z"/>
<path d="M1534 4145 c-10 -8 -14 -15 -8 -15 6 0 17 7 24 15 16 19 9 19 -16 0z"/>
<path d="M1766 4063 c4 -14 1 -22 -9 -25 -10 -2 30 -57 125 -170 77 -92 144
-165 149 -162 5 2 -46 78 -112 167 -175 236 -159 216 -153 190z"/>
<path d="M1673 4014 c22 -27 10 -39 -17 -17 -30 26 30 -43 177 -204 72 -78
135 -139 140 -136 4 3 0 15 -11 27 -10 11 -74 86 -142 166 -68 80 -132 154
-144 165 l-20 20 17 -21z"/>
<path d="M2425 3920 c-16 -7 -17 -9 -3 -9 9 -1 20 4 23 9 7 11 7 11 -20 0z"/>
<path d="M895 3793 c18 -18 425 -238 425 -229 0 2 -73 43 -162 92 -90 48 -188
101 -218 117 -30 17 -50 26 -45 20z"/>
<path d="M4107 5013 c-4 -3 -7 -13 -7 -22 1 -13 3 -13 11 2 11 19 8 33 -4 20z"/>
<path d="M4052 4930 c1 -17 2 -29 3 -28 0 2 9 15 18 31 17 26 17 27 -2 27 -15
0 -19 -7 -19 -30z"/>
<path d="M3900 4680 c0 -11 2 -20 5 -20 2 0 9 9 15 20 9 16 8 20 -5 20 -8 0
-15 -9 -15 -20z"/>
<path d="M3740 4420 c0 -11 2 -20 5 -20 2 0 9 9 15 20 9 16 8 20 -5 20 -8 0
-15 -9 -15 -20z"/>
<path d="M3699 4386 c-3 -3 -6 -66 -3 -66 4 0 34 56 34 63 0 3 -27 6 -31 3z"/>
<path d="M3590 4171 c0 -25 6 -27 13 -6 4 8 2 17 -3 20 -6 4 -10 -3 -10 -14z"/>
<path d="M3540 4098 c0 -17 1 -29 3 -27 2 2 11 16 20 32 17 26 17 27 -3 27
-16 0 -20 -7 -20 -32z"/>
<path d="M3490 4005 c0 -8 2 -15 4 -15 2 0 6 7 10 15 3 8 1 15 -4 15 -6 0 -10
-7 -10 -15z"/>
<path d="M3437 3923 c-4 -3 -7 -11 -7 -17 0 -6 5 -5 12 2 6 6 9 14 7 17 -3 3
-9 2 -12 -2z"/>
<path d="M2601 4684 c0 -11 3 -14 6 -6 3 7 2 16 -1 19 -3 4 -6 -2 -5 -13z"/>
<path d="M2613 4595 c0 -22 2 -30 4 -17 2 12 2 30 0 40 -3 9 -5 -1 -4 -23z"/>
<path d="M3597 4545 c-24 -50 -20 -58 4 -12 11 22 19 41 17 43 -3 2 -12 -12
-21 -31z"/>
<path d="M2421 4374 c0 -11 3 -14 6 -6 3 7 2 16 -1 19 -3 4 -6 -2 -5 -13z"/>
<path d="M4635 3841 c-9 -16 9 -20 23 -5 10 12 10 14 -2 14 -8 0 -17 -4 -21
-9z"/>
<path d="M4680 3835 c0 -13 4 -14 23 -4 33 17 33 19 4 19 -18 0 -27 -5 -27
-15z"/>
<path d="M3945 3469 c-4 -6 -5 -12 -2 -15 2 -3 7 2 10 11 7 17 1 20 -8 4z"/>
<path d="M2570 3725 c-180 -37 -351 -128 -486 -257 -125 -120 -208 -248 -255
-395 -15 -48 -26 -69 -31 -60 -5 7 -6 -1 -2 -17 5 -22 4 -27 -6 -21 -10 6 -12
1 -8 -18 3 -15 1 -28 -4 -29 -18 -6 -21 -238 -4 -336 73 -417 399 -745 811
-818 318 -56 647 47 876 276 136 135 222 281 271 460 20 74 23 107 23 255 -1
143 -4 182 -23 250 -25 89 -94 241 -144 312 -82 121 -243 260 -375 327 -80 40
-196 76 -223 69 -13 -4 -21 -2 -17 3 9 16 -328 15 -403 -1z m316 -76 c472 -65
821 -512 766 -980 -15 -127 -59 -261 -120 -364 -63 -107 -210 -254 -317 -317
-449 -264 -1023 -92 -1258 377 -171 343 -103 758 170 1031 202 201 475 293
759 253z"/>
<path d="M2954 3543 c-21 -4 -21 -5 -27 -706 -4 -386 -10 -736 -13 -777 -7
-97 -2 -103 61 -86 69 19 157 55 173 70 11 10 14 49 13 159 l-2 145 72 38
c141 74 245 205 284 359 17 68 20 228 4 295 -27 117 -127 263 -248 360 -73 58
-196 124 -218 116 -8 -4 -11 -2 -7 5 4 8 -1 9 -16 4 -16 -5 -20 -4 -15 4 5 8
-1 10 -21 5 -19 -5 -25 -4 -20 5 4 6 6 10 4 10 -2 -1 -12 -4 -24 -6z m254
-430 c16 -21 38 -56 49 -78 25 -49 47 -169 33 -173 -5 -2 -7 -14 -4 -27 8 -33
-26 -105 -76 -159 -24 -25 -45 -46 -49 -46 -3 0 -5 117 -3 260 1 143 7 260 11
260 5 0 23 -17 39 -37z"/>
<path d="M2554 3531 c-5 -5 -27 -14 -49 -21 -159 -50 -320 -175 -416 -323 -22
-34 -45 -61 -49 -60 -5 2 -6 -5 -3 -14 5 -12 3 -14 -7 -8 -10 6 -12 4 -7 -8 8
-20 -2 -49 -13 -42 -12 7 -23 -32 -14 -46 4 -7 3 -9 -4 -5 -19 12 -44 -130
-44 -254 0 -233 82 -421 253 -586 87 -83 169 -135 278 -174 58 -22 81 -26 90
-17 13 13 16 825 3 842 -4 6 -50 9 -114 7 l-106 -3 -6 -122 c-4 -67 -8 -166
-9 -220 l-2 -98 -23 28 c-67 80 -122 238 -122 348 0 75 26 182 61 254 44 89
151 199 239 245 38 21 74 45 80 56 12 23 14 217 2 224 -5 3 -13 1 -18 -3z"/>
<path d="M2790 2990 l0 -101 -29 22 c-41 30 -95 20 -120 -22 -22 -36 -38 -219
-26 -290 14 -85 90 -124 149 -78 21 17 26 18 26 5 0 -12 11 -16 45 -16 l45 0
0 290 0 290 -45 0 -45 0 0 -100z m-12 -152 c8 -8 12 -49 12 -119 0 -110 -9
-139 -45 -139 -36 0 -45 29 -45 139 0 112 6 131 45 131 12 0 26 -5 33 -12z"/>
<path d="M628 2923 c12 -2 32 -2 45 0 12 2 2 4 -23 4 -25 0 -35 -2 -22 -4z"/>
<path d="M1621 2138 c-41 -23 -70 -43 -63 -46 13 -4 152 69 152 80 0 13 -13 8
-89 -34z"/>
<path d="M1390 1960 c0 -5 7 -7 15 -4 8 4 15 8 15 10 0 2 -7 4 -15 4 -8 0 -15
-4 -15 -10z"/>
<path d="M1330 1920 c0 -5 7 -7 15 -4 8 4 15 8 15 10 0 2 -7 4 -15 4 -8 0 -15
-4 -15 -10z"/>
<path d="M1230 1865 c0 -16 16 -20 24 -6 3 5 -1 11 -9 15 -9 3 -15 0 -15 -9z"/>
<path d="M970 1705 c0 -19 11 -19 36 0 18 14 18 14 -8 15 -18 0 -28 -5 -28
-15z"/>
<path d="M2097 1673 c-19 -32 -48 -82 -65 -110 -25 -43 -28 -50 -11 -40 17 10
129 185 129 201 0 21 -24 -2 -53 -51z"/>
<path d="M2023 1475 c0 -8 4 -12 9 -9 4 3 8 9 8 15 0 5 -4 9 -8 9 -5 0 -9 -7
-9 -15z"/>
<path d="M1970 1375 c0 -8 2 -15 4 -15 2 0 6 7 10 15 3 8 1 15 -4 15 -6 0 -10
-7 -10 -15z"/>
<path d="M1874 1226 c-3 -8 -4 -25 -2 -37 3 -19 5 -18 20 14 15 32 16 37 3 37
-9 0 -18 -6 -21 -14z"/>
</g>
</svg>
